<svg id="visual" viewBox="0 0 1920 80" width="1920" height="80" xmlns="http://www.w3.org/2000/svg" xmlns:xlink="http://www.w3.org/1999/xlink" version="1.1"><rect x="0" y="0" width="1920" height="80" fill="#FF6F61"></rect><path d="M0 39L13.3 40.5C26.7 42 53.3 45 80 39.7C106.7 34.3 133.3 20.7 160 18.5C186.7 16.3 213.3 25.7 240 30C266.7 34.3 293.3 33.7 320 34.7C346.7 35.7 373.3 38.3 400 37.7C426.7 37 453.3 33 480 27.3C506.7 21.7 533.3 14.3 560 17.3C586.7 20.3 613.3 33.7 640 35C666.7 36.3 693.3 25.7 720 19.2C746.7 12.7 773.3 10.3 800 12.3C826.7 14.3 853.3 20.7 880 20.8C906.7 21 933.3 15 960 17.3C986.7 19.7 1013.3 30.3 1040 32.3C1066.7 34.3 1093.3 27.7 1120 23C1146.7 18.3 1173.3 15.7 1200 20C1226.7 24.3 1253.3 35.7 1280 36.8C1306.7 38 1333.3 29 1360 29.2C1386.7 29.3 1413.3 38.7 1440 38.7C1466.7 38.7 1493.3 29.3 1520 23.2C1546.7 17 1573.3 14 1600 13C1626.7 12 1653.3 13 1680 19.3C1706.7 25.7 1733.3 37.3 1760 38.5C1786.7 39.7 1813.3 30.3 1840 26.5C1866.7 22.7 1893.3 24.3 1906.7 25.2L1920 26L1920 0L1906.7 0C1893.3 0 1866.7 0 1840 0C1813.3 0 1786.7 0 1760 0C1733.3 0 1706.7 0 1680 0C1653.3 0 1626.7 0 1600 0C1573.3 0 1546.7 0 1520 0C1493.3 0 1466.7 0 1440 0C1413.3 0 1386.7 0 1360 0C1333.3 0 1306.7 0 1280 0C1253.3 0 1226.7 0 1200 0C1173.3 0 1146.7 0 1120 0C1093.3 0 1066.7 0 1040 0C1013.3 0 986.7 0 960 0C933.3 0 906.7 0 880 0C853.3 0 826.7 0 800 0C773.3 0 746.7 0 720 0C693.3 0 666.7 0 640 0C613.3 0 586.7 0 560 0C533.3 0 506.7 0 480 0C453.3 0 426.7 0 400 0C373.3 0 346.7 0 320 0C293.3 0 266.7 0 240 0C213.3 0 186.7 0 160 0C133.3 0 106.7 0 80 0C53.3 0 26.7 0 13.3 0L0 0Z" fill="#FCAF3C" stroke-linecap="round" stroke-linejoin="miter"></path></svg>